<?xml version="1.0" encoding="UTF-8"?>
<svg id="Camada_1" xmlns="http://www.w3.org/2000/svg" version="1.1" viewBox="0 0 2784 1536">
  <!-- Generator: Adobe Illustrator 30.1.0, SVG Export Plug-In . SVG Version: 2.1.1 Build 136)  -->
  <defs>
    <style>
      .st0 {
        fill: #a0b891;
      }

      .st1 {
        fill: #a2b893;
      }

      .st2 {
        fill: #a1b992;
      }

      .st3 {
        fill: #a2b992;
      }

      .st4 {
        fill: #a0b991;
      }

      .st5 {
        fill: #9fb88f;
      }

      .st6 {
        fill: #a1ba94;
      }

      .st7 {
        fill: #a1b995;
      }

      .st8 {
        fill: #a1b892;
      }
    </style>
  </defs>
  <path class="st4" d="M1163.58,678.37l-1.06,133.14-106.15-133.15c-8.7-.13-15.81-1.63-23.22.95l-.19,181.5c9.44.59,17.92,1.31,26.75-.48l.75-135,106.92,135.15c7.83,1.36,15.17,1.42,22.7-.08l-.23-182.04c-9.02-.64-16.76-.66-26.27,0Z"/>
  <path class="st2" d="M1939.1,782.87l50.89.28-.2,38.79c-13.12,10.33-28.77,17.08-45.45,18.12-39.84,2.49-71.62-26.55-72.45-66.02-.46-22.09,5.09-43.49,22.05-58.18,29.42-25.48,71.62-21.77,99.77,5.34l16.65-18.45c-17.75-18.73-42.18-27.38-68.03-28.36-56.02-2.12-97.71,40.86-97.86,95.61-.15,52.52,37.98,94.07,91.83,94.76,30.14.39,59.01-10.14,78.86-32.99l.06-71.65-76.3-.37c-.88,8.34-.89,15.4.19,23.11Z"/>
  <path class="st2" d="M1702.53,836.16v-55.93s98.33-.95,98.33-.95c.2-11.36.82-15.9-.66-23.97l-97.36-.3.03-52.19,104.81-.81c1.49-8.24,1.4-15.57.07-24.01l-132.46.32v182.94s136.12-.18,136.12-.18v-24.64s-108.88-.28-108.88-.28Z"/>
  <rect class="st5" x="2260.37" y="678.11" width="26.82" height="183.13" transform="translate(-1.34 3.96) rotate(-.1)"/>
  <path class="st3" d="M1549.36,678.78c-26.6-2.16-53.14-.1-80.39-.56l-.23,183h71.29c23.1-.02,45.08-8.05,62.69-23.58,20.89-20.68,28.65-47.28,27.14-75.69-2.39-45.01-34.63-79.44-80.5-83.16ZM1586.67,815.59c-11.93,14.14-29.21,20.33-46.45,20.34l-44.77.03.03-133.1c29.4-.77,66.32-5.26,87.78,16.3,25.66,25.77,27.39,67.99,3.4,96.43Z"/>
  <path class="st8" d="M2473.98,700.03c-15.59-13.61-34.83-21.62-56.01-21.64l-75.15-.09-.23,183.05,76.83-.42c42.79-.23,76.52-32.67,82.81-75.91,4.76-32.79-5.29-63.18-28.26-84.98ZM2417.84,835.72l-48.48.29.03-133.44c18.11.23,35.1-1.21,51.46.59,33.79,3.72,53.7,30.03,55.2,63.76,1.63,36.63-21.33,68.57-58.21,68.79Z"/>
  <path class="st0" d="M2211.23,734.16c-.69-20.26-9.9-38-28.7-47.26-9.89-4.73-20.9-8.72-32.49-8.72h-86.44s-.04,182.54-.04,182.54c9.89.85,18.35,1.32,26.77-.27l.26-66.29,42.94.12,52.71,67.03c10.75-.95,20.61,2.07,30.65-1.72l-53.78-67.93c30.8-4.66,49.12-27.84,48.1-57.49ZM2090.61,769.83l-.02-67.58,57.4.05c11.26.01,21.61,4.67,29.74,12.12,9.11,12.47,9.28,29.08.54,42.73-14.66,20.26-63.76,10.89-87.67,12.67Z"/>
  <path class="st1" d="M1329.72,674.31c-52.71,0-95.44,42.73-95.44,95.44s42.73,95.44,95.44,95.44,95.44-42.73,95.44-95.44-42.73-95.44-95.44-95.44ZM1382.08,814.94c-14.26,19.12-36.1,26.67-58.6,24.86-19.88-1.6-41.63-13.18-51.98-33.2-11.97-23.17-11.83-51.66.42-74.37,11.05-20.49,32.11-31.95,53.96-33.19,22.23-1.26,45.83,8.78,58.67,28.34,17.24,26.28,16.67,61.93-2.46,87.57Z"/>
  <path class="st8" d="M908.61,397.19l-71.45,39.57c-42.05-30.88-90.83-46.25-143.12-45.91-51.78.34-100.8,13.81-142.66,46.11l-71.35-39.17c-6.91-3.8-15.48-1.44-18.66,4.88-2.77,5.51-2.16,14.25,4.3,17.81l63.03,34.76c-62.29,60.22-61.14,157.06,5.05,215.31-44.1,6.93-79.37,29.99-103.5,65.59-13.9,21.26-22.75,42.88-31.27,67.31l-110.01,331.49c-1.66,5,1.46,9.49,3.55,11.76,2.6,2.84,7.25,3.66,11.41,3.76,27.46.65,53.8-.05,79.92-8.74,39.23-13.04,71.83-37.44,99.23-69.7,32.92,5.04,65.07,6.53,99.48,1.24l27.81,49.82-99.21,1.25c-7.72.1-9.4,11.4-8.02,15.67,1.64,5.08,6.09,9.69,13.14,9.69l309.43-.03c8.15,0,12.19-7.1,12.53-12.68.43-7.1-4.72-12.34-12.25-13.48l-94.65-.37-43.79-79.35c146.97-73,225.1-233.22,186.3-393.2,47.28-64.45,38.74-139.48-15.03-196.01l60.73-32.73c6.9-3.72,10.08-11.55,7.11-17.9-2.87-6.14-11.07-10.62-18.06-6.75ZM809.81,450.69c-21.3,13.48-42.81,22.73-62.01,37.22-23.53,15.5-40.6,34.71-54.43,62.96-13.33-30.14-34.15-51.93-61.71-68.3l-53.9-32.01c71.26-44.84,161.75-44.19,232.05.13ZM453.41,749.13c28.71-41.48,85.94-67.47,133.72-41.21l-41.1,64.25c-18.07-3.51-34.64,3.48-41.54,22.16l-73.43-.24c5.95-16.61,12.71-31.04,22.35-44.97ZM670.12,815.75l61.2.15c3.06,7.78,7.22,12.96,13.07,18.26-7.43,22.8-16.94,43.52-27.81,66.18-18.13-3.4-33.93,4.19-39.1,21.5l-53.53-.36c25.24-36.82,38.33-60.23,46.18-105.73ZM649.11,725.04c39.06,6.84,76.91,5.42,115.03-5.13,0,17.82-3.07,34.02-5.6,51.37-11.48,3.86-21.51,9.31-26.18,23.03l-61.41-.13c-.38-25.23-8.12-46.82-21.83-69.14ZM491.81,921.8c-5.88,0-9.43-7.65-6.55-12.27l43.9-70.54c18.39,2.9,33.49-6.03,39.53-22.86l73.65-.21c-3.75,38.72-27.23,76.59-53.79,105.84l-96.74.04ZM564.64,943.56c-30.67,34.81-107.95,72.05-152.5,83.5l36.31-59.78c18.43,2.33,34.64-6.12,40.35-24.42l75.85.7ZM570.86,794.17c-3.53-2.33-7.23-8.18-6.44-12.01l41.49-64.42c24.29,18.89,37.41,45.82,38.26,76.49l-73.31-.06ZM423.43,815.69l78.41.35c4.56,1.33,7.39,9.39,8.07,13.68l-42.9,68.49c-3.71,5.92-31.2-8.09-42.82,23.67l-36.3-.26,35.54-105.94ZM380.93,943.2l40.79-.36c3.49,3.69,4.6,7.55,9,13.55l-48.71,78.86c-11.91,3.02-21.99,5.98-34.34,6.88l33.26-98.93ZM321.41,1123.25l17.02-52.43c27.22-4.59,52.45-9.79,78.46-18.31l37.06,12.06c-31.3,36.11-83.05,63.19-132.55,58.68ZM536.47,1049.69c-26.41.15-50.54-3.44-74.61-11.27,55.54-25.12,101.88-51.11,143.42-95.46l68.29.37c4.17.46,6.26,8.41,6.79,12.47-37.59,45.37-85.86,77.7-143.9,93.89ZM700.8,1122.78l-58.72,1.02-30.89-54.76c17.59-4.93,33.99-7.95,51.47-14.68l38.14,68.42ZM616.53,1039.13c31.79-20.23,59.16-43.76,82.13-73.04,19.83,5.58,36.59-4.72,43.03-22.75,12.4,0,23.15-1.68,35.25.45-39.88,43.5-101.15,85.57-160.41,95.34ZM794.24,921.94c-17.54-.66-33.17.93-51.04-.76-4.04-.38-6.55-8.08-7.4-11.56,10.86-22.24,20.57-45.21,28.72-69.7,15.47-.93,27.17-8.94,32.35-23.96l48.71-.09c-9.51,38.47-27.21,74.33-51.34,106.08ZM850.35,793.99l-53.52.31c-4.07-8.34-8.89-14.43-16.62-19,2.43-21.43,4.99-41.4,5.46-63.49,24.62-8.79,45.31-22.16,66.12-37.97,7.06,40.97,7.03,80.82-1.44,120.15ZM866.95,609.42c-46.88,103-226.29,125.42-318.96,38.77-52.44-49.03-50.42-131.99,4.54-179.36,25.54,12.88,49.4,26.08,73.03,41.6,28.64,18.82,46.21,47.82,52.25,81.56l-21.89,2.1,37.42,63.52,37.56-63.74c-7.26-2.15-13.43-.15-22.37-1.34,14.15-72.99,65.82-91.36,125.1-123.99,41.47,33.64,55.47,92.19,33.32,140.87Z"/>
  <circle class="st6" cx="794.56" cy="566" r="33.49" transform="translate(-167.5 727.62) rotate(-45)"/>
  <circle class="st7" cx="593.27" cy="565.73" r="33.37" transform="translate(-114.11 151.44) rotate(-13.28)"/>
</svg>